<svg width="640" height="800" viewBox="0 0 640 800" fill="none" xmlns="http://www.w3.org/2000/svg">
  <defs>
    <linearGradient id="bg" x1="0" y1="0" x2="1" y2="1">
      <stop offset="0%" stop-color="oklch(82% 0.08 120)" />
      <stop offset="45%" stop-color="oklch(88% 0.05 100)" />
      <stop offset="100%" stop-color="oklch(74% 0.12 80)" />
    </linearGradient>
    <linearGradient id="shine" x1="0" y1="0" x2="1" y2="0">
      <stop offset="0%" stop-color="rgba(255,255,255,0.45)" />
      <stop offset="40%" stop-color="rgba(255,255,255,0.0)" />
    </linearGradient>
  </defs>
  <rect width="640" height="800" rx="32" fill="url(#bg)"/>
  <rect x="60" y="80" width="520" height="640" rx="28" fill="rgba(255,255,255,0.08)" stroke="rgba(255,255,255,0.16)" stroke-width="3"/>
  <rect x="140" y="120" width="360" height="120" rx="18" fill="rgba(255,255,255,0.18)" stroke="rgba(255,255,255,0.24)"/>
  <rect x="160" y="260" width="320" height="12" rx="6" fill="rgba(0,0,0,0.12)"/>
  <rect x="160" y="286" width="260" height="12" rx="6" fill="rgba(0,0,0,0.12)"/>
  <rect x="160" y="312" width="300" height="12" rx="6" fill="rgba(0,0,0,0.12)"/>
  <rect x="160" y="360" width="320" height="220" rx="18" fill="rgba(0,0,0,0.10)"/>
  <circle cx="320" cy="470" r="86" fill="rgba(255,255,255,0.22)"/>
  <circle cx="320" cy="470" r="60" fill="rgba(0,0,0,0.14)"/>
  <rect x="190" y="610" width="260" height="16" rx="8" fill="rgba(0,0,0,0.12)"/>
  <rect x="220" y="640" width="200" height="12" rx="6" fill="rgba(0,0,0,0.10)"/>
  <rect x="0" y="0" width="640" height="800" fill="url(#shine)"/>
</svg>
